<svg xmlns="http://www.w3.org/2000/svg" viewBox="0 0 24 24">
  <g transform="translate(1.2, 1.4)">
    <path d="M14.6515 9.96214H16.4797V18.6766H14.6515V9.96214ZM4.78154 18.6766H6.55224V9.96214H4.78154V18.6766ZM9.04529 18.6766V9.96214H7.15953V18.6766H9.04529ZM11.5447 18.6766V9.96214H9.65897V18.6766H11.5447ZM14.0378 18.6766V9.96214H12.152V18.6766H14.0378ZM10.7393 6.13596L5.52306 9.34791H15.687L10.7393 6.13596ZM0 6.10397V9.34791H4.35964L9.6334 6.10397H0ZM11.8196 6.10397L16.8185 9.34791H21.1973V6.10397H11.8196ZM10.5987 0C6.62256 0 3.15786 2.21381 1.34241 5.48334H19.8613C18.0458 2.21381 14.5811 0 10.5987 0ZM0.121456 11.0499L0 10.9603V11.4657L0.0319622 11.3186L0.121456 11.0499ZM2.7871 18.6766H3.60533L3.19622 18.3759L2.7871 18.6766ZM0 9.96214H4.17426V18.6766H3.61173L3.45191 18.1903L3.86742 17.8896H3.35603L3.19622 17.4034L3.03641 17.8896H2.52501L2.94052 18.1903L2.78071 18.6766H0V13.4236L0.415508 13.7243L0.255697 14.2106L0.671206 13.9099L1.08671 14.2106L0.926903 13.7243L1.34241 13.4236H0.831016L0.671206 12.9373L0.511395 13.4236H0V11.5297L0.389938 11.2482L0.805447 11.5489L0.645636 11.0626L1.06114 10.7619H0.549749L0.389938 10.2757L0.319622 10.4996L0.217343 10.7619H0V9.96854V9.96214ZM1.5214 15.887H1.01L1.42551 16.1877L1.2657 16.674L1.68121 16.3732L2.09672 16.674L1.93691 16.1877L2.35242 15.887H1.84102L1.68121 15.4007L1.5214 15.887ZM0 21.6006H4.17426V19.2909H0V21.6006ZM17.087 21.6006H21.1973V19.2909H17.087V21.6006ZM15.7765 19.2909H16.4797V21.6006H10.9886L10.8735 21.2423L11.289 20.9416H10.7776L10.6178 20.4553L10.458 20.9416H9.94663L10.3621 21.2423L10.2471 21.6006H4.78154V19.2909H5.45275L5.33768 19.6556H4.82629L5.2418 19.9563L5.08198 20.4425L5.49749 20.1418L5.913 20.4425L5.75319 19.9563L6.1687 19.6556H5.6573L5.54224 19.2909H15.6998L15.5848 19.6556H15.0734L15.4889 19.9563L15.3291 20.4425L15.7446 20.1418L16.1601 20.4425L16.0003 19.9563L16.4158 19.6556H15.9044L15.7893 19.2909H15.7765ZM8.20788 20.9224L8.62339 20.6217H8.112L7.95219 20.1354L7.79238 20.6217H7.28098L7.69649 20.9224L7.53668 21.4087L7.95219 21.108L8.3677 21.4087L8.20788 20.9224ZM13.4625 20.9224L13.878 20.6217H13.3666L13.2068 20.1354L13.047 20.6217H12.5356L12.9511 20.9224L12.7913 21.4087L13.2068 21.108L13.6223 21.4087L13.4625 20.9224ZM10.3877 21.6006H10.8544L10.6178 21.4279L10.3877 21.6006ZM17.087 9.96214H21.1973V10.7555H20.9928L20.8329 10.2693L20.6731 10.7555H20.1617L20.5772 11.0563L20.4174 11.5425L20.8329 11.2418L21.1909 11.5041V13.4172H20.7115L20.5517 12.931L20.3919 13.4172H19.8805L20.296 13.7179L20.1362 14.2042L20.5517 13.9035L20.9672 14.2042L20.8074 13.7179L21.1909 13.4364V18.6702H18.4358L18.276 18.184L18.6915 17.8832H18.1801L18.0203 17.397L17.8605 17.8832H17.3491L17.7646 18.184L17.6048 18.6702H17.0742V9.96214H17.087ZM18.8769 15.887L19.2924 16.1877L19.1326 16.674L19.5481 16.3732L19.9636 16.674L19.8038 16.1877L20.2193 15.887H19.7079L19.5481 15.4007L19.3883 15.887H18.8769ZM21.2037 11.3762V10.9795L21.1014 11.0563L21.2037 11.3762ZM18.4422 18.6702L18.0331 18.3695L17.6175 18.6702H18.4422Z" fill="#E57201"></path>
  </g>
</svg>
